<?xml version="1.0" encoding="UTF-8"?>
<svg id="Robot_master" data-name="Robot master" xmlns="http://www.w3.org/2000/svg" viewBox="0 0 100 120">
  <defs>
    <style>
      .cls-1 {
        fill: #fff;
      }

      .cls-2 {
        opacity: .1;
      }

      .cls-3 {
        fill: #6dbedf;
      }
    </style>
  </defs>
  <rect class="cls-3" width="100" height="120"/>
  <ellipse id="Shadow" class="cls-2" cx="49.88" cy="118" rx="18" ry="2"/>
  <g id="Robot">
    <g id="Torso">
      <path id="Arm-right" class="cls-1" d="M96.33,63.36c-.41-.72-1.33-.96-2.05-.55-1.08,.63-2.29,.87-3.4,.67-1.01-.17-1.8-.69-2.25-1.46-.44-.76-.49-1.71-.14-2.67,.39-1.06,1.2-1.98,2.28-2.61,.72-.41,.96-1.33,.55-2.05s-1.33-.96-2.05-.55c-1.69,.98-2.97,2.46-3.6,4.17-.43,1.17-.53,2.36-.3,3.48-6.79,2.82-13.8,2.22-19.71,.51,.88,1.13,1.64,2.37,2.26,3.67,2.49,.52,4.93,.78,7.3,.78,4.07,0,7.93-.77,11.5-2.29,.91,1.01,2.16,1.7,3.63,1.95,.42,.07,.84,.11,1.27,.11,1.41,0,2.85-.39,4.14-1.14,.72-.41,.96-1.33,.55-2.05Z"/>
      <g id="Body">
        <g id="Rocket">
          <path id="Fire" class="cls-1" d="M44.88,100.45c-2,2-3,6-3,6l4-2,4,10,4-10.02,4,2.02s-1-4-3-6c-2.8-2.67-7.2-2.67-10,0h0Z"/>
          <path id="Pipe" class="cls-1" d="M41.06,94.55c.41,1.16,1.51,2,2.82,2h12c1.3,0,2.4-.84,2.82-2h-17.63Z"/>
        </g>
        <path id="Belly" class="cls-1" d="M52.88,56.82v-2.27s-6,0-6,0v2.27c-8.51,1.43-15,8.81-15,17.73v14c0,2.21,1.79,4,4,4h28c2.21,0,4-1.79,4-4v-14c0-8.92-6.49-16.3-15-17.73Zm-.27,26.29l-1.64,.94c-.68,.39-1.51,.39-2.19,0l-1.64-.94v-3.15s2.73,1.51,2.73,1.51l2.73-1.51v3.15Zm5.27-4.31c0,.78-.42,1.5-1.09,1.9l-1.01,.58v-8.82c0-.36-.39-.59-.71-.41l-5.18,2.92-5.19-2.92c-.31-.18-.71,.05-.71,.41v8.82s-1.01-.58-1.01-.58c-.68-.39-1.09-1.11-1.09-1.9v-6.71c0-.78,.42-1.5,1.09-1.9l5.81-3.35c.68-.39,1.51-.39,2.19,0l5.81,3.35c.68,.39,1.09,1.11,1.09,1.9v6.71Z"/>
      </g>
      <path id="Arm-left" class="cls-1" d="M35.35,60.58c-8.93,3.75-15.31,9.57-18.56,16.9-3.08-.27-6.17,1.98-7.24,5.49-.24,.79,.2,1.63,1,1.87s1.63-.2,1.87-1c.73-2.37,2.82-3.84,4.66-3.28,1.85,.56,2.76,2.95,2.03,5.33-.24,.79,.2,1.63,1,1.87,.15,.04,.29,.07,.44,.07,.64,0,1.24-.42,1.43-1.06,1-3.26-.06-6.59-2.37-8.25,2.73-6.03,7.49-10.14,12.43-12.94,.97-1.91,2.21-3.66,3.71-5.16-.13,.05-.26,.1-.39,.16Z"/>
    </g>
    <g id="Head">
      <path id="Face" class="cls-1" d="M72.91,20.5H28.91c-2.21,0-4,1.79-4,4v24c0,2.21,1.79,4,4,4h44c2.21,0,4-1.79,4-4V24.5c0-2.21-1.79-4-4-4Zm-29,26h-2v-2h2v2Zm4,0h-2v-2h2v2Zm4,0h-2v-2h2v2Zm-15-8c-3.32,0-6-2.69-6-6,0-1.66,.67-3.16,1.76-4.24,1.08-1.09,2.58-1.76,4.24-1.76h19s-4,12-4,12h-15Zm19,8h-2v-2h2v2Zm4,0h-2v-2h2v2Zm-4-8h-2s4-12,4-12h2s-4,12-4,12Zm13.24-1.76c-1.08,1.09-2.58,1.76-4.24,1.76h-4s4-12,4-12c3.31,0,6,2.69,6,6,0,1.66-.67,3.16-1.76,4.24Z"/>
      <path id="Ear-right" class="cls-1" d="M78.91,32.62h0c2.21,0,4,1.79,4,4h0c0,2.21-1.79,4-4,4h0v-8h0Z"/>
      <path id="Ear-left" class="cls-1" d="M22.91,32.53h0v8h0c-2.21,0-4-1.79-4-4h0c0-2.21,1.79-4,4-4Z"/>
      <g id="Top">
        <path id="Antenna-left" class="cls-1" d="M40.91,10.5c0-2.21-1.79-4-4-4s-4,1.79-4,4c0,1.86,1.28,3.41,3,3.86v4.14s2,0,2,0v-4.14c1.72-.45,3-2,3-3.86Z"/>
        <path id="Antenna-right" class="cls-1" d="M68.91,10.5c0-2.21-1.79-4-4-4s-4,1.79-4,4c0,1.86,1.28,3.41,3,3.86v4.14s2,0,2,0v-4.14c1.72-.45,3-2,3-3.86Z"/>
        <path id="Signal" class="cls-1" d="M52.91,15.5c-.38,0-.73-.21-.89-.55l-3.11-6.21-1.11,2.21c-.17,.34-.52,.55-.89,.55h-2c-.55,0-1-.45-1-1s.45-1,1-1h1.38s1.72-3.45,1.72-3.45c.34-.68,1.45-.68,1.79,0l3.11,6.21,1.11-2.21c.17-.34,.52-.55,.89-.55h2c.55,0,1,.45,1,1s-.45,1-1,1h-1.38s-1.72,3.45-1.72,3.45c-.17,.34-.52,.55-.89,.55Z"/>
      </g>
    </g>
  </g>
</svg>